# xmcd CD database file
#
# Track frame offsets:
#	150
#	15570
#	31467
#	42829
#	72140
#	86658
#	105416
#	121869
#	133757
#	144717
#	156734
#	169223
#	191119
#	203346
#
# Disc length: 2852 seconds
#
# Revision: 2
# Processed by: cddbd v1.5.2PL0 Copyright (c) Steve Scherf et al.
# Submitted via: CDex 1.83
#
DISCID=c10b220e
DTITLE=Various Artist - Light My Fire - Lady Sings The Blues CD1
DYEAR=2005
DGENRE=Blues
TTITLE0=Katie Melua - Cravling up that hill
TTITLE1=Dorothy Moore - Misty Blue
TTITLE2=Crystal Gale - Don't make my brown eyes blue
TTITLE3=Ruby Turner - I'd rather go blind
TTITLE4=Billie Holiday - Guilty
TTITLE5=Charlie Hunter - More that this
TTITLE6=Judy Garland - Over the rainbow
TTITLE7=Cilla Black - Alfie
TTITLE8=Sarah Vaughan - Ev'ry time we say goodbye
TTITLE9=Liza Minelli - Looking at you
TTITLE10=Kay Starr - I love paris
TTITLE11=Staple Sisters - Respect yourself
TTITLE12=Babe Washington - That's how heartaches are made
TTITLE13=Chet Baker - My funny valentine
EXTD=YEAR: 2005
EXTT0=
EXTT1=
EXTT2=
EXTT3=
EXTT4=
EXTT5=
EXTT6=
EXTT7=
EXTT8=
EXTT9=
EXTT10=
EXTT11=
EXTT12=
EXTT13=
PLAYORDER=
